<?xml version="1.0" encoding="utf-8"?>
<svg viewBox="65.4923 57.1717 236.6763 199.4664" xmlns="http://www.w3.org/2000/svg">
  <g transform="matrix(1, 0, 0, 1, -53.51533508300781, -66.37960052490234)">
    <g id="g4516" transform="matrix(2.481979, 0, 0, 2.481979, -4009.664307, 730.856384)">
      <path id="path4513-6" d="m 1669.7664,-190.07191 c -3.4831,-6e-5 -6.3067,3.45812 -6.3067,7.72402 0,4.2659 2.5563,7.18954 6.3067,7.72402 l 46.9069,10.30393 42.1444,-23.718" style="opacity: 1; vector-effect: none; fill: none; fill-opacity: 1; stroke-width: 2.999; stroke-linecap: round; stroke-linejoin: round; stroke-miterlimit: 4; stroke-dasharray: none; stroke-dashoffset: 0; stroke-opacity: 1; stroke: rgb(255, 255, 255);"/>
      <path id="path4513-6-7" d="m 1669.7664,-205.51995 c -3.4831,-6e-5 -6.3067,3.45812 -6.3067,7.72402 0,4.2659 2.5563,7.18954 6.3067,7.72402 l 46.9069,10.30393 42.1444,-23.718" style="opacity: 1; vector-effect: none; fill: none; fill-opacity: 1; stroke-width: 2.999; stroke-linecap: round; stroke-linejoin: round; stroke-miterlimit: 4; stroke-dasharray: none; stroke-dashoffset: 0; stroke-opacity: 1; stroke: rgb(255, 255, 255);"/>
      <path id="path4513-6-7-5-3" d="m 1669.7664,-220.96799 c -3.4831,-6e-5 -6.3067,3.45812 -6.3067,7.72402 0,4.2659 2.5563,7.18954 6.3067,7.72402 l 22.8809,5.02619 m 13.6936,3.00805 10.3324,2.26969 42.1444,-23.718" style="opacity: 1; vector-effect: none; fill: none; fill-opacity: 1; stroke-width: 2.999; stroke-linecap: round; stroke-linejoin: round; stroke-miterlimit: 4; stroke-dasharray: none; stroke-dashoffset: 0; stroke-opacity: 1; stroke: rgb(255, 255, 255);"/>
      <path transform="scale(0.26458333)" id="path4513-6-7-5-3-5" d="m 6470.2148,-924.79688 -163.5797,89.64226 181.5797,38.94368 159.2852,-89.64258 z" style="opacity: 1; vector-effect: none; fill-opacity: 1; stroke-width: 11.3348; stroke-linecap: round; stroke-linejoin: round; stroke-miterlimit: 4; stroke-dasharray: none; stroke-dashoffset: 0; stroke-opacity: 1; stroke: rgb(255, 255, 255); fill: rgb(255, 255, 255);"/>
      <path id="path4513-6-7-5-3-5-2" d="m 1715.1438,-235.60505 -10.863,6.14815 17.4451,3.83204 10.8628,-6.14815 z" style="opacity:1;vector-effect:none;fill:#f29d16;fill-opacity:1;stroke:#333333;stroke-width:1.11534715;stroke-linecap:round;stroke-linejoin:round;stroke-miterlimit:4;stroke-dasharray:none;stroke-dashoffset:0;stroke-opacity:1"/>
      <path id="path4508" d="m 1696.2626,-208.44866 v 15.68601 l 3.4963,-2.17336 3.8743,4.25223 v -16.53646 z" style="fill:#f49f16;fill-opacity:1;fill-rule:evenodd;stroke:none;stroke-width:0.26458332px;stroke-linecap:butt;stroke-linejoin:miter;stroke-opacity:1"/>
    </g>
  </g>
</svg>